inDegrees=no
num_controls=7
num_derivatives=13
num_iterations=86
num_multipliers=7
num_parameters=0
num_slacks=7
num_states=26
objective=5.331285
objective_accelerations=0.718122
objective_balance=0.023024
objective_effort=0.180020
objective_height=4.312692
objective_ligament=0.097428
solver_duration=1067.947156
status=Solve_Succeeded
success=true
DataType=double
version=3
OpenSimVersion=4.4-2022-07-23-0e9fedc
endheader
time	/jointset/ground_pelvis/pelvis_tilt/value	/jointset/ground_pelvis/pelvis_tx/value	/jointset/ground_pelvis/pelvis_ty/value	/jointset/hip_l/hip_flexion_l/value	/jointset/hip_l/hip_adduction_l/value	/jointset/hip_l/hip_rotation_l/value	/jointset/back/lumbar_extension/value	/jointset/patellofemoral_l/patellar_flexion_l/value	/jointset/knee_l/knee_flexion_l/value	/jointset/knee_l/knee_adduction_l/value	/jointset/knee_l/knee_rotation_l/value	/jointset/ankle_l/ankle_angle_l/value	/jointset/subtalar_l/subtalar_angle_l/value	/jointset/ground_pelvis/pelvis_tilt/speed	/jointset/ground_pelvis/pelvis_tx/speed	/jointset/ground_pelvis/pelvis_ty/speed	/jointset/hip_l/hip_flexion_l/speed	/jointset/hip_l/hip_adduction_l/speed	/jointset/hip_l/hip_rotation_l/speed	/jointset/back/lumbar_extension/speed	/jointset/patellofemoral_l/patellar_flexion_l/speed	/jointset/knee_l/knee_flexion_l/speed	/jointset/knee_l/knee_adduction_l/speed	/jointset/knee_l/knee_rotation_l/speed	/jointset/ankle_l/ankle_angle_l/speed	/jointset/subtalar_l/subtalar_angle_l/speed	/forceset/tau_hip_flexion_l	/forceset/tau_hip_adduction_l	/forceset/tau_hip_rotation_l	/forceset/tau_knee_flexion_l	/forceset/tau_ankle_angle_l	/forceset/tau_subtalar_angle_l	/forceset/tau_lumbar_extension	lambda_cid13_p0	lambda_cid13_p1	lambda_cid13_p2	lambda_cid13_p3	lambda_cid13_p4	lambda_cid13_p5	lambda_cid14_p0	/jointset/ground_pelvis/pelvis_tilt/accel	/jointset/ground_pelvis/pelvis_tx/accel	/jointset/ground_pelvis/pelvis_ty/accel	/jointset/hip_l/hip_flexion_l/accel	/jointset/hip_l/hip_adduction_l/accel	/jointset/hip_l/hip_rotation_l/accel	/jointset/back/lumbar_extension/accel	/jointset/patellofemoral_l/patellar_flexion_l/accel	/jointset/knee_l/knee_flexion_l/accel	/jointset/knee_l/knee_adduction_l/accel	/jointset/knee_l/knee_rotation_l/accel	/jointset/ankle_l/ankle_angle_l/accel	/jointset/subtalar_l/subtalar_angle_l/accel	gamma_cid13_p0	gamma_cid13_p1	gamma_cid13_p2	gamma_cid13_p3	gamma_cid13_p4	gamma_cid13_p5	gamma_cid14_p0
1.5	-0.3637639173244067	0.05797625021508798	0.7920911327915344	1.012504755309176	-0.3572084857310256	-0.06044508897988315	-0.3264625491455298	0.8067364213447161	0.80673642134475	-0.03062387457999002	-0.1739286598534656	0.2762547640083213	0.1569219472197988	0.5433274515958454	0.2620905060521617	0.489366980284669	-2.337713458541108	0.00818679814140013	-0.6183441921281919	0.6168179049949212	-2.177946730858448	-2.177946730858419	-0.2817554214536145	0.01457155026588298	-0.5529549128622331	-0.2080187011032081	-0.1360944663523793	0.05150316916518204	-0.001078699383056689	-0.1184674336300251	-0.04688762730188462	0.006652399963167206	0.1270191830470987	-38.59824312436152	2.276099114127258	1.175747921636608	-1.71425924215037	-427.7031509824171	-47.55767793555911	-10.72385219041537	0.5145715819702043	0.5185827398657662	-0.7722960569818249	-1.119207580973386	0.3075886580128259	-0.4963766892623047	1.406013458803859	-1.063059451020619	-1.06305945102069	-0.2178733717172706	0.2020306265206445	-0.531678895815302	0.4095259760964574	6.066775375684613e-07	5.91591906624239e-07	-6.289844473895173e-06	-2.155038704555506e-07	1.277815565050783e-06	2.04975745392094e-06	8.200280909155357e-07
1.51	-0.3583049834325886	0.06062286160819676	0.7969452802424848	0.9890729745895873	-0.3571136092555465	-0.06664854618079202	-0.3202258863269689	0.7849058311140515	0.7849058311141726	-0.0334597747298654	-0.1737727339716903	0.2706987656501069	0.1548590102237113	0.5483599594134286	0.2671998575962065	0.4813580441905213	-2.348323121791654	0.01079660596614082	-0.622290622448709	0.6304323592540542	-2.187858966852528	-2.187858966852539	-0.2853939830520954	0.01664227995092634	-0.5581314773052971	-0.2045205307899888	-0.1312602069735958	0.04921878064608153	-0.0002053305806219553	-0.1163286334876855	-0.04579623718739016	0.006289935913564128	0.1231338159172516	-38.09157709627265	2.166136389224711	1.397358189140659	-1.793579774363219	-424.6153772900078	-48.16276039811459	-11.62788830314527	0.4827461087428547	0.5023018349638864	-0.8306087650868157	-0.9838255219064388	0.2396604588938337	-0.3344781518124979	1.326816489501603	-0.9086126438262273	-0.9086126438320913	-0.4322771140591382	0.2128543608097578	-0.4935797704514072	0.327683727105622	5.808718058379629e-07	9.921725189288733e-07	-5.950091772217149e-06	-1.467947058190615e-07	1.270934477213847e-06	2.298403226183224e-06	8.042818725628759e-07
1.52	-0.3527986933171499	0.06331960461140342	0.8017162550565864	0.9655447012725616	-0.3569922379789827	-0.07288960807457626	-0.3138555479497941	0.7629854571294884	0.762985457129454	-0.03633114640810654	-0.1735954487486757	0.2650944147370798	0.1528325991643905	0.5527986963146062	0.2721168280717404	0.4727324529158115	-2.357011978034921	0.01348575835845446	-0.6258651307038777	0.6435530167145332	-2.195903481655723	-2.195903481655773	-0.2888497270563904	0.01884341848854549	-0.5626254238243386	-0.2007135137499231	-0.1264259475947248	0.046934392127115	0.0006680382203054792	-0.1141898333454988	-0.04470484707293719	0.005927471864141976	0.1192484487876029	-37.58079634851552	2.056050127380551	1.618310006365353	-1.915832524255013	-421.4488580630169	-48.8589389183869	-12.5290685531088	0.3958173986872632	0.4801065261632871	-0.8956270930943391	-0.7350461795176971	0.3234575715273746	-0.4219922761924417	1.307254099071494	-0.6895152128428873	-0.6895152128428881	-0.1813098528799686	0.2281123970358834	-0.3951553110109057	0.4712953214657178	5.647027144186028e-07	1.379445136757541e-06	-5.76750473481346e-06	-8.201950732356324e-08	1.274475299270946e-06	2.569743089497011e-06	8.082755798283675e-07
1.53	-0.3472509311171207	0.06606426843078206	0.8063980139124783	0.9419390955426022	-0.3568440209185909	-0.07916402088515689	-0.3073566010114531	0.7409935426367512	0.7409935426371622	-0.03923733831828057	-0.1733954113919576	0.2594479032391076	0.1508449730580654	0.5566635969764271	0.2767550125765275	0.4635281484363102	-2.363789855191881	0.01613465828306212	-0.6288353470293682	0.6561342592226612	-2.202201224531164	-2.202201224531218	-0.2924931272310644	0.02125786833289202	-0.5666193216384817	-0.1968303102903714	-0.1222205065271535	0.04662306038595842	0.001606905273478314	-0.1111297205640857	-0.04499476334679095	0.004086239467389982	0.1157251885305229	-37.67777334441211	2.758285736498326	1.637014723639987	-1.317045508990672	-418.7035610935486	-47.82255175930343	-13.4267777529437	0.3683674518818265	0.4465381306697763	-0.9462482168395685	-0.6011745082995236	0.232844848211895	-0.2063643367344077	1.21824256670305	-0.5583442966505791	-0.5583442966510467	-0.4714675784671137	0.2611676731474246	-0.3927778799028632	0.3444163138046371	5.587725533298267e-07	1.752578010455494e-06	-5.751906215701249e-06	-2.142414785286753e-08	1.289089400590459e-06	2.86519542455302e-06	8.332429580631447e-07
1.54	-0.3416672117000488	0.06885348683881481	0.8109850465052674	0.9182753078361739	-0.3566698671298789	-0.08546250146429765	-0.3007349050000139	0.7189469626212943	0.7189469626213475	-0.04218308672665323	-0.1731686182573865	0.2537631985903395	0.1488956956774568	0.559990139716335	0.2810277458025664	0.4537872002960897	-2.368648373329679	0.01867310401917739	-0.6306786843951444	0.6681028313315939	-2.20683658627697	-2.206836586277026	-0.2967610265540002	0.02419457397777432	-0.570264053984101	-0.1930437686066414	-0.1180150654599463	0.04631172864429684	0.002545772322937706	-0.1080696077829825	-0.0452846796208647	0.002245007069957795	0.1122019282733695	-37.76775914435778	3.453011746571206	1.664101071822135	-0.7728123410247021	-415.8913565005629	-46.89493144605899	-14.32121173649581	0.2881458143028129	0.4070162704132906	-1.002955825238288	-0.351174375685712	0.3013667338288812	-0.1966164842494331	1.184720019231003	-0.3570389869150085	-0.3570389869149947	-0.3062096825322959	0.3325635571431303	-0.3253222173063093	0.451962966301266	3.480868707690458e-07	3.187405580969942e-06	-3.815613899874586e-06	2.551137287043873e-07	9.28808094070328e-07	2.826891149104027e-06	7.241172170270103e-07
1.55	-0.3360531718865772	0.07168367072120786	0.8154720247451556	0.8945734028986024	-0.35646860437063	-0.09178607771685014	-0.2939959980302164	0.6968634691698421	0.696863469170528	-0.04516276600266945	-0.1729168832600566	0.2480450978189014	0.1469874540648329	0.5627399279998313	0.2849568921871127	0.4435284272340179	-2.371424271109133	0.0215689638021246	-0.6338163575460911	0.6795973628447766	-2.209548242263162	-2.209548242263259	-0.2992802398545713	0.02626415661841248	-0.5732569196148656	-0.1885965629872031	-0.1139444883183574	0.04447424392899406	0.003455968346774443	-0.1052946550384858	-0.04563453926666881	0.001355451130597173	0.1088355729635437	-37.81064227618192	3.659639245236467	1.845003454987083	-0.3990419126623574	-413.4174130510455	-47.09703012183253	-15.21337829898785	0.2566928501542841	0.3782575107001024	-1.049401822559078	-0.1945809294111818	0.2809288546654455	-0.3391078781846779	1.119639749630534	-0.1812124569031796	-0.1812124569093695	-0.2393332154906709	0.1614772083159365	-0.2711395362869765	0.4408344441774636	-9.851278218337997e-08	5.845490084772893e-06	3.336517034707798e-07	7.804549401657076e-07	1.365820785175883e-07	2.40404121372538e-06	4.604928820483121e-07
1.56	-0.3304139746872869	0.0745516248050907	0.8198540024992378	0.8708529822931753	-0.3562389363627089	-0.09813438373051345	-0.2871445817388182	0.674762262448657	0.6747622624487141	-0.04817054862572639	-0.1726409881171879	0.2423000942310955	0.1451236315252858	0.5650216168745428	0.2885817861005231	0.4327871031357327	-2.37235150690227	0.02435415375067147	-0.6356246366036872	0.6906046956487433	-2.210379240346727	-2.210379240346864	-0.3023816956219869	0.02902660289068293	-0.5756446172586452	-0.1841599539912817	-0.1098739111769817	0.04263675921331242	0.004366164363083225	-0.102519702294088	-0.04598439891260856	0.0004658951908109528	0.1054692176537368	-37.853166651286	3.86691821888234	2.024986675980863	-0.0233055775739116	-410.9344448388582	-47.28669304219188	-16.09753613491072	0.194525932544567	0.346165776185883	-1.099466032481025	0.01855802157711026	0.2792327669490704	0.06926233442073737	1.087280277386795	0.01909259361085803	0.01909259361085809	-0.4226581759011613	0.4711362834695945	-0.2042886199094461	0.4498436415978137	-3.015477049954488e-07	7.098125962280862e-06	2.160175254268312e-06	1.023492216929108e-06	-2.180213831260079e-07	2.24976115207209e-06	3.513925447056617e-07
